<svg width="25" height="19" viewBox="0 0 25 19" fill="none" xmlns="http://www.w3.org/2000/svg">
    <path d="M23.3333 0H1.55556C1.143 0 0.747335 0.163888 0.455612 0.455612C0.163888 0.747335 0 1.143 0 1.55556V17.1111C0 17.5237 0.163888 17.9193 0.455612 18.2111C0.747335 18.5028 1.143 18.6667 1.55556 18.6667H23.3333C23.7459 18.6667 24.1416 18.5028 24.4333 18.2111C24.725 17.9193 24.8889 17.5237 24.8889 17.1111V1.55556C24.8889 1.143 24.725 0.747335 24.4333 0.455612C24.1416 0.163888 23.7459 0 23.3333 0ZM23.3333 1.55556V10.8889H1.55556V1.55556H23.3333ZM1.55556 17.1111V14H23.3333V17.1111H1.55556Z" fill="#4829A8"/>
</svg>
