<svg width="17" height="28" viewBox="0 0 17 28" fill="none" xmlns="http://www.w3.org/2000/svg">
    <path d="M9.76463 26.1858C9.76437 26.4264 9.69278 26.6615 9.55891 26.8614C9.42504 27.0612 9.23491 27.2169 9.01255 27.3088C8.79019 27.4006 8.54559 27.4244 8.30969 27.3772C8.07379 27.33 7.85718 27.214 7.68725 27.0437C7.51732 26.8734 7.40171 26.6565 7.35503 26.4205C7.30835 26.1845 7.3327 25.94 7.425 25.7178C7.5173 25.4956 7.67341 25.3058 7.87358 25.1724C8.07375 25.039 8.309 24.9679 8.54957 24.9681C8.70931 24.9683 8.86745 24.9999 9.01496 25.0612C9.16247 25.1225 9.29646 25.2122 9.40929 25.3253C9.52212 25.4384 9.61157 25.5726 9.67254 25.7202C9.73351 25.8679 9.7648 26.0261 9.76463 26.1858Z" fill="#C6C6C6"/>
    <path d="M4.41418 24.3541V25.0385C4.41418 25.6721 5.11688 26.1858 5.97864 26.1858H10.9249C11.7932 26.1858 12.4894 25.6721 12.4894 25.0385V24.3541H4.41418Z" fill="#C6C6C6"/>
    <path d="M4.38812 20.4925C4.38812 14.4746 0.727295 13.5059 0.727295 8.59091C0.727295 6.52945 1.5462 4.55243 3.00387 3.09476C4.46154 1.63709 6.43857 0.818182 8.50002 0.818182C10.5615 0.818182 12.5385 1.63709 13.9962 3.09476C15.4538 4.55243 16.2727 6.52945 16.2727 8.59091C16.2727 12.2961 12.5376 15.1525 12.5376 20.6098L4.38812 20.4925Z" fill="#FFDE00"/>
    <path d="M5.18208 15.7347C4.72056 12.5145 3.45075 8.55517 4.55238 5.46798C5.52104 2.75626 7.26541 1.73936 11.0266 1.24265C9.85623 0.840355 8.6067 0.723352 7.38198 0.901369C6.15726 1.07939 4.99275 1.54728 3.98532 2.26612C2.9779 2.98496 2.15669 3.93397 1.59 5.0342C1.02332 6.13443 0.72755 7.35408 0.727295 8.59167C0.727295 13.5067 4.38812 14.4753 4.38812 20.4933L9.15318 20.5884C8.67993 20.1686 5.74528 19.6576 5.18208 15.7347Z" fill="#FDC500"/>
    <g style="mix-blend-mode:soft-light">
        <path d="M15.4006 8.34841C15.4006 10.7694 13.4203 15.1525 11.5755 15.1525C9.73076 15.1525 8.71777 10.7694 8.71777 8.34841C8.71777 5.92742 9.5365 2.513 11.3813 2.513C13.226 2.513 15.4006 5.92873 15.4006 8.34841Z" fill="white"/>
    </g>
    <path d="M3.92401 20.9579C3.92384 21.0366 3.93919 21.1146 3.96919 21.1873C3.99918 21.2601 4.04324 21.3262 4.09882 21.3819C4.1544 21.4376 4.22043 21.4818 4.29312 21.5119C4.3658 21.5421 4.44372 21.5576 4.52242 21.5576H12.4751C12.6341 21.5576 12.7866 21.4944 12.8991 21.382C13.0116 21.2695 13.0748 21.117 13.0748 20.9579C13.0748 20.7989 13.0116 20.6463 12.8991 20.5338C12.7866 20.4214 12.6341 20.3582 12.4751 20.3582H4.52242C4.44372 20.3582 4.3658 20.3737 4.29312 20.4039C4.22043 20.434 4.1544 20.4782 4.09882 20.5339C4.04324 20.5896 3.99918 20.6558 3.96919 20.7285C3.93919 20.8013 3.92384 20.8792 3.92401 20.9579Z" fill="#C6C6C6"/>
    <g style="mix-blend-mode:multiply">
        <path d="M3.93182 21.0361C3.95045 21.1798 4.02057 21.3119 4.12918 21.4078C4.23779 21.5037 4.37751 21.5569 4.5224 21.5576H12.475C12.6202 21.5572 12.7602 21.5041 12.8691 21.4082C12.978 21.3123 13.0483 21.18 13.0669 21.0361H3.93182Z" fill="#C6C6C6"/>
    </g>
    <g style="mix-blend-mode:soft-light">
        <path d="M12.5676 20.662C12.5676 20.6825 12.5636 20.7029 12.5557 20.7218C12.5478 20.7408 12.5363 20.7581 12.5218 20.7726C12.5073 20.7871 12.49 20.7986 12.471 20.8065C12.4521 20.8144 12.4317 20.8184 12.4112 20.8184H4.68668C4.64507 20.8184 4.60514 20.802 4.57559 20.7727C4.54605 20.7434 4.52927 20.7036 4.52893 20.662C4.52893 20.6201 4.54555 20.58 4.57513 20.5504C4.60472 20.5208 4.64484 20.5042 4.68668 20.5042H12.4112C12.4528 20.5046 12.4926 20.5213 12.5219 20.5509C12.5512 20.5804 12.5676 20.6204 12.5676 20.662Z" fill="white"/>
    </g>
    <path d="M12.4776 21.5576H4.41418V23.9369H12.4776V21.5576Z" fill="#C6C6C6"/>
    <path d="M3.93965 22.1821C3.93116 22.2604 3.93818 22.3395 3.96033 22.4151C3.98248 22.4906 4.01932 22.561 4.06873 22.6223C4.11814 22.6836 4.17916 22.7345 4.24828 22.7722C4.31741 22.8098 4.39329 22.8335 4.47157 22.8418L12.3799 23.697C12.4581 23.7055 12.5373 23.6985 12.6128 23.6763C12.6884 23.6542 12.7588 23.6173 12.8201 23.5679C12.8814 23.5185 12.9323 23.4575 12.97 23.3884C13.0076 23.3192 13.0313 23.2434 13.0396 23.1651C13.0481 23.0868 13.041 23.0077 13.0189 22.9321C12.9967 22.8566 12.9599 22.7862 12.9105 22.7249C12.8611 22.6636 12.8001 22.6127 12.7309 22.575C12.6618 22.5373 12.5859 22.5137 12.5076 22.5054L4.60064 21.6502C4.4425 21.6334 4.28415 21.6799 4.16026 21.7796C4.03637 21.8793 3.95704 22.024 3.93965 22.1821Z" fill="#C6C6C6"/>
    <g style="mix-blend-mode:multiply">
        <path d="M3.93964 22.2616C3.94261 22.4065 3.99825 22.5453 4.09615 22.652C4.19406 22.7588 4.32751 22.8263 4.47155 22.8418L12.3799 23.697C12.524 23.7123 12.6688 23.6746 12.7871 23.5908C12.9054 23.5071 12.9892 23.3831 13.0226 23.242L3.93964 22.2616Z" fill="#C6C6C6"/>
    </g>
    <g style="mix-blend-mode:soft-light">
        <path d="M12.5663 22.8157C12.5641 22.8363 12.558 22.8563 12.5481 22.8745C12.5382 22.8927 12.5248 22.9087 12.5087 22.9217C12.4926 22.9347 12.474 22.9443 12.4541 22.9501C12.4343 22.9558 12.4134 22.9576 12.3929 22.9552L4.7127 22.1261C4.67139 22.1211 4.63365 22.1002 4.60758 22.0678C4.5815 22.0354 4.56916 21.9941 4.5732 21.9527C4.57465 21.9316 4.58035 21.9111 4.58994 21.8923C4.59954 21.8735 4.61284 21.8569 4.62903 21.8433C4.64523 21.8298 4.664 21.8197 4.6842 21.8136C4.7044 21.8076 4.72563 21.8056 4.7466 21.808L12.4268 22.6371C12.4681 22.642 12.5058 22.6629 12.5319 22.6954C12.558 22.7278 12.5703 22.7691 12.5663 22.8105V22.8157Z" fill="white"/>
    </g>
    <path d="M3.92401 24.3632C3.92384 24.4419 3.93919 24.5199 3.96919 24.5926C3.99918 24.6654 4.04324 24.7315 4.09882 24.7872C4.1544 24.8429 4.22043 24.8871 4.29312 24.9172C4.3658 24.9474 4.44372 24.9629 4.52242 24.9629H12.4751C12.6341 24.9629 12.7866 24.8997 12.8991 24.7873C13.0116 24.6748 13.0748 24.5223 13.0748 24.3632C13.0748 24.2042 13.0116 24.0516 12.8991 23.9391C12.7866 23.8267 12.6341 23.7635 12.4751 23.7635H4.52242C4.44372 23.7635 4.3658 23.779 4.29312 23.8092C4.22043 23.8393 4.1544 23.8835 4.09882 23.9392C4.04324 23.9949 3.99918 24.061 3.96919 24.1338C3.93919 24.2066 3.92384 24.2845 3.92401 24.3632Z" fill="#C6C6C6"/>
    <g style="mix-blend-mode:multiply">
        <path d="M3.93182 24.4414C3.95045 24.5851 4.02057 24.7172 4.12918 24.8131C4.23779 24.909 4.37751 24.9622 4.5224 24.9629H12.475C12.6202 24.9625 12.7602 24.9094 12.8691 24.8135C12.978 24.7176 13.0483 24.5853 13.0669 24.4414H3.93182Z" fill="#C6C6C6"/>
    </g>
    <g style="mix-blend-mode:soft-light">
        <path d="M12.5676 24.066C12.5676 24.1076 12.5512 24.1475 12.5219 24.1771C12.4926 24.2066 12.4528 24.2234 12.4112 24.2237H4.68668C4.64484 24.2237 4.60472 24.2071 4.57513 24.1775C4.54555 24.1479 4.52893 24.1078 4.52893 24.066C4.52927 24.0244 4.54605 23.9846 4.57559 23.9553C4.60514 23.926 4.64507 23.9095 4.68668 23.9095H12.4112C12.4527 23.9095 12.4925 23.926 12.5218 23.9554C12.5511 23.9847 12.5676 24.0245 12.5676 24.066Z" fill="white"/>
    </g>
</svg>
