<svg width="25" height="24" viewBox="0 0 25 24" fill="none" xmlns="http://www.w3.org/2000/svg">
    <g clip-path="url(#clip0_98_75)">
        <path d="M21.75 3.99994H7.75C7.21957 3.99994 6.71086 4.21065 6.33579 4.58573C5.96071 4.9608 5.75 5.46951 5.75 5.99994C5.75 6.53037 5.96071 7.03908 6.33579 7.41415C6.71086 7.78923 7.21957 7.99994 7.75 7.99994H21.75V20.9999C21.75 21.2652 21.6446 21.5195 21.4571 21.707C21.2696 21.8946 21.0152 21.9999 20.75 21.9999H7.75C6.68913 21.9999 5.67172 21.5785 4.92157 20.8284C4.17143 20.0782 3.75 19.0608 3.75 17.9999V5.99994C3.75 4.93907 4.17143 3.92166 4.92157 3.17151C5.67172 2.42137 6.68913 1.99994 7.75 1.99994H20.75C21.0152 1.99994 21.2696 2.1053 21.4571 2.29283C21.6446 2.48037 21.75 2.73472 21.75 2.99994V3.99994ZM20.75 6.99994H7.75C7.48478 6.99994 7.23043 6.89458 7.04289 6.70705C6.85536 6.51951 6.75 6.26516 6.75 5.99994C6.75 5.73472 6.85536 5.48037 7.04289 5.29283C7.23043 5.1053 7.48478 4.99994 7.75 4.99994H20.75V6.99994Z" fill="#838388"/>
    </g>
    <defs>
        <clipPath id="clip0_98_75">
            <rect width="24" height="24" fill="white" transform="translate(0.75 -6.10352e-05)"/>
        </clipPath>
    </defs>
</svg>
