<svg width="22" height="27" viewBox="0 0 22 27" fill="none" xmlns="http://www.w3.org/2000/svg">
    <path d="M18.3333 2.26649e-08C19.0935 -9.33625e-05 19.8254 0.288394 20.381 0.807159C20.9366 1.32592 21.2746 2.03628 21.3267 2.79467L21.3333 2.99867V23.6627C21.3334 24.4228 21.0449 25.1547 20.5262 25.7103C20.0074 26.266 19.2971 26.604 18.5387 26.656L18.3333 26.6627H3C2.23983 26.6628 1.50797 26.3743 0.952329 25.8555C0.396686 25.3367 0.0586962 24.6264 0.00666684 23.868L2.2665e-08 23.6653V3C-9.33625e-05 2.23983 0.288394 1.50797 0.807159 0.952329C1.32592 0.396686 2.03628 0.0586962 2.79467 0.00666684L3 2.26649e-08H18.3333ZM18.3333 2H3C2.75835 2.00001 2.52488 2.08752 2.34276 2.24636C2.16064 2.40519 2.0422 2.6246 2.00933 2.864L2 3V23.664C2 24.1707 2.376 24.5893 2.864 24.6547L3 24.664H18.3333C18.575 24.664 18.8085 24.5765 18.9906 24.4176C19.1727 24.2588 19.2911 24.0394 19.324 23.8L19.3333 23.664V3C19.3333 2.75835 19.2458 2.52488 19.087 2.34276C18.9281 2.16064 18.7087 2.0422 18.4693 2.00933L18.3333 1.99867V2ZM10.9973 14.6613C11.2525 14.6587 11.499 14.7538 11.6864 14.927C11.8737 15.1003 11.9878 15.3386 12.0052 15.5932C12.0226 15.8478 11.942 16.0994 11.7799 16.2965C11.6178 16.4935 11.3865 16.6212 11.1333 16.6533L10.9973 16.6613H5C4.74664 16.6613 4.50275 16.565 4.31761 16.392C4.13248 16.2191 4.0199 15.9823 4.00263 15.7295C3.98536 15.4767 4.06469 15.2268 4.22458 15.0303C4.38447 14.8337 4.613 14.7052 4.864 14.6707L5 14.6613H10.9973ZM16.3333 10.6653C16.5867 10.6654 16.8306 10.7617 17.0157 10.9346C17.2009 11.1076 17.3134 11.3444 17.3307 11.5972C17.348 11.8499 17.2686 12.0999 17.1088 12.2964C16.9489 12.4929 16.7203 12.6215 16.4693 12.656L16.3333 12.6653H5C4.74483 12.6679 4.49832 12.5729 4.31096 12.3996C4.12359 12.2264 4.00953 11.9881 3.99215 11.7335C3.97477 11.4789 4.05538 11.2273 4.21746 11.0302C4.37955 10.8331 4.61085 10.7054 4.864 10.6733L5 10.6653H16.3333ZM16.3333 6.66667C16.5867 6.66674 16.8306 6.76299 17.0157 6.93596C17.2009 7.10893 17.3134 7.34573 17.3307 7.59851C17.348 7.85128 17.2686 8.10119 17.1088 8.29773C16.9489 8.49427 16.7203 8.6228 16.4693 8.65733L16.3333 8.66667H5C4.74664 8.66659 4.50275 8.57034 4.31761 8.39737C4.13248 8.2244 4.0199 7.9876 4.00263 7.73483C3.98536 7.48205 4.06469 7.23214 4.22458 7.0356C4.38447 6.83906 4.613 6.71053 4.864 6.676L5 6.66533H16.3333V6.66667Z" fill="#DDDDDD"/>
</svg>
